<svg xmlns="http://www.w3.org/2000/svg" width="192" height="192" viewBox="0 0 192 192" fill="none">
  <rect width="192" height="192" rx="42" fill="#0B1020"/>
  <path fill="#A78BFA" d="M103.784 160.262c-2.65 3.38-8.084 1.5-8.084-2.792v-41.213a9.04 9.04 0 0 0-9.048-9.048H40.948c-3.68 0-5.824-4.16-3.68-7.152l29.92-41.884c4.28-5.988 0-14.312-7.368-14.312H4.948c-3.68 0-5.824-4.16-3.68-7.152L40.052 1.896A3.68 3.68 0 0 1 43.732 0h115.576c3.68 0 5.824 4.16 3.68 7.152l-29.92 41.884c-4.28 5.992 0 14.316 7.368 14.316h45.508c3.772 0 5.892 4.352 3.56 7.32l-85.72 89.59Z" transform="translate(19 16) scale(.82)"/>
</svg>
